<svg width="57" height="50" viewBox="0 0 57 50" fill="none" xmlns="http://www.w3.org/2000/svg">
<path opacity="0.5" d="M43.0209 15.6575L30.3635 22.8172C29.1672 23.4937 27.7042 23.4937 26.5079 22.8172L13.8505 15.6571C12.7757 15.0491 11.4774 14.9838 10.3471 15.4809L2.33965 19.0013C-0.611226 20.2985 -0.817755 24.4063 1.98787 25.9933L12.1431 31.7379L26.5079 39.8636C27.7038 40.5401 29.1672 40.5401 30.3635 39.8636L44.7282 31.7379L54.8835 25.9933C57.6891 24.4063 57.4822 20.2985 54.5317 19.0013L46.5243 15.4809C45.394 14.9838 44.0953 15.0494 43.0209 15.6571V15.6575Z" fill="#82B98E"/>
<path opacity="0.5" d="M10.3474 24.6374L2.33996 28.1577C-0.61092 29.455 -0.81745 33.5628 1.98817 35.1498L26.5082 49.0201C27.7041 49.6966 29.1675 49.6966 30.3638 49.0201L54.8841 35.1498C57.6898 33.5628 57.4829 29.455 54.5324 28.1577L46.5249 24.6374C45.3946 24.1403 44.096 24.2059 43.0215 24.8136L30.3641 31.9733C29.1682 32.6498 27.7048 32.6498 26.5086 31.9733L13.8512 24.8136C12.7763 24.2056 11.4781 24.1403 10.3477 24.6374H10.3474Z" fill="#67A7C1"/>
<path opacity="0.5" d="M44.7282 23.8477L54.8835 18.1031C57.6891 16.5161 57.4822 12.4082 54.5317 11.111L30.0117 0.33115C29.0075 -0.110383 27.8642 -0.110383 26.86 0.33115L2.33965 11.111C-0.611226 12.4082 -0.817755 16.5161 1.98787 18.1031L12.1431 23.8477L26.5079 31.9734C27.7038 32.6499 29.1672 32.6499 30.3635 31.9734L44.7282 23.8477Z" fill="#8973CD"/>
</svg>
